<svg width="36" height="36" viewBox="0 0 36 36" fill="none" xmlns="http://www.w3.org/2000/svg">
<path fill-rule="evenodd" clip-rule="evenodd" d="M33.7807 16.5289L36 18L33.7807 19.4711L11.3143 34.3636L8.84571 36V33.0577V24.4765L2.46857 28.7524L0 30.4075V27.4548V9.36031V6.40754L2.46857 8.06271L8.84571 12.3386V2.94226V0L11.3143 1.63636L33.7807 16.5289ZM8.84571 15.2913L2.46857 11.0155V25.7996L8.84571 21.5237V15.2913ZM11.3143 19.8686V16.9465L13.4933 18.4075L11.3143 19.8686ZM11.3143 22.8213L15.6952 19.8839L17.8971 18.4075L15.6952 16.9312L11.3143 13.9937V4.57863L31.5614 18L11.3143 31.4214V22.8213Z" fill="#53575C"/>
</svg>
