<svg width="36" height="36" viewBox="0 0 36 36" fill="none" xmlns="http://www.w3.org/2000/svg">
<path fill-rule="evenodd" clip-rule="evenodd" d="M2.21931 19.4711L5.96046e-08 18L2.21931 16.5289L24.6857 1.63636L27.1543 -1.26136e-06V2.94226V11.5235L33.5314 7.24763L36 5.59246L36 8.54523V26.6397V29.5925L33.5314 27.9373L27.1543 23.6614V33.0577V36L24.6857 34.3636L2.21931 19.4711ZM27.1543 20.7087L33.5314 24.9845V10.2004L27.1543 14.4763V20.7087ZM24.6857 16.1314V19.0535L22.5067 17.5925L24.6857 16.1314ZM24.6857 13.1787L20.3048 16.1161L18.1029 17.5925L20.3048 19.0688L24.6857 22.0063V31.4214L4.43862 18L24.6857 4.57863V13.1787Z" fill="#53575C"/>
</svg>
