<svg width="203" height="203" viewBox="0 0 203 203" fill="none" xmlns="http://www.w3.org/2000/svg">
<circle cx="101.5" cy="101.5" r="101.5" fill="#1F3555"/>
<path d="M42.9444 103H41.1831C41.0789 102.493 40.8966 102.048 40.6362 101.665C40.3805 101.281 40.068 100.959 39.6987 100.699C39.3341 100.434 38.9293 100.235 38.4842 100.102C38.0391 99.9697 37.5751 99.9034 37.0922 99.9034C36.2115 99.9034 35.4136 100.126 34.6987 100.571C33.9885 101.016 33.4226 101.672 33.0012 102.538C32.5846 103.405 32.3762 104.468 32.3762 105.727C32.3762 106.987 32.5846 108.05 33.0012 108.916C33.4226 109.783 33.9885 110.438 34.6987 110.884C35.4136 111.329 36.2115 111.551 37.0922 111.551C37.5751 111.551 38.0391 111.485 38.4842 111.352C38.9293 111.22 39.3341 111.023 39.6987 110.763C40.068 110.498 40.3805 110.173 40.6362 109.79C40.8966 109.402 41.0789 108.956 41.1831 108.455H42.9444C42.8118 109.198 42.5704 109.863 42.22 110.45C41.8696 111.037 41.434 111.537 40.9132 111.949C40.3923 112.356 39.8076 112.666 39.1589 112.879C38.515 113.092 37.8261 113.199 37.0922 113.199C35.8516 113.199 34.7484 112.896 33.7825 112.29C32.8166 111.684 32.0566 110.822 31.5027 109.705C30.9487 108.587 30.6717 107.261 30.6717 105.727C30.6717 104.193 30.9487 102.867 31.5027 101.75C32.0566 100.633 32.8166 99.7708 33.7825 99.1648C34.7484 98.5587 35.8516 98.2557 37.0922 98.2557C37.8261 98.2557 38.515 98.3622 39.1589 98.5753C39.8076 98.7884 40.3923 99.1009 40.9132 99.5128C41.434 99.92 41.8696 100.417 42.22 101.004C42.5704 101.587 42.8118 102.252 42.9444 103ZM48.7736 113.256C48.0823 113.256 47.455 113.125 46.8915 112.865C46.3281 112.6 45.8806 112.219 45.5492 111.722C45.2177 111.22 45.052 110.614 45.052 109.903C45.052 109.278 45.1751 108.772 45.4213 108.384C45.6676 107.991 45.9966 107.683 46.4086 107.46C46.8205 107.238 47.275 107.072 47.7722 106.963C48.2741 106.849 48.7783 106.759 49.285 106.693C49.9479 106.608 50.4853 106.544 50.8972 106.501C51.3139 106.454 51.6169 106.376 51.8063 106.267C52.0004 106.158 52.0975 105.969 52.0975 105.699V105.642C52.0975 104.941 51.9057 104.397 51.5222 104.009C51.1434 103.62 50.5681 103.426 49.7963 103.426C48.9962 103.426 48.3688 103.601 47.9142 103.952C47.4597 104.302 47.1401 104.676 46.9554 105.074L45.3645 104.506C45.6486 103.843 46.0274 103.327 46.5009 102.957C46.9791 102.583 47.4999 102.323 48.0634 102.176C48.6316 102.025 49.1903 101.949 49.7395 101.949C50.0899 101.949 50.4924 101.991 50.9469 102.077C51.4062 102.157 51.8489 102.325 52.275 102.581C52.7059 102.837 53.0634 103.223 53.3475 103.739C53.6316 104.255 53.7736 104.946 53.7736 105.812V113H52.0975V111.523H52.0123C51.8986 111.759 51.7092 112.013 51.4441 112.283C51.1789 112.553 50.8262 112.782 50.3858 112.972C49.9455 113.161 49.4081 113.256 48.7736 113.256ZM49.0293 111.75C49.6922 111.75 50.2509 111.62 50.7054 111.359C51.1647 111.099 51.5104 110.763 51.7424 110.351C51.9791 109.939 52.0975 109.506 52.0975 109.051V107.517C52.0265 107.602 51.8702 107.68 51.6287 107.751C51.392 107.818 51.1174 107.877 50.8049 107.929C50.4971 107.976 50.1964 108.019 49.9029 108.057C49.6141 108.09 49.3797 108.118 49.1998 108.142C48.7641 108.199 48.3569 108.291 47.9782 108.419C47.6041 108.542 47.3011 108.729 47.0691 108.98C46.8418 109.226 46.7282 109.562 46.7282 109.989C46.7282 110.571 46.9436 111.011 47.3745 111.31C47.8101 111.603 48.3617 111.75 49.0293 111.75ZM58.5091 98.4545V113H56.8329V98.4545H58.5091ZM63.2551 98.4545V113H61.579V98.4545H63.2551ZM71.9501 113V102.091H73.5694V103.795H73.7115C73.9387 103.213 74.3057 102.761 74.8123 102.439C75.319 102.112 75.9274 101.949 76.6376 101.949C77.3573 101.949 77.9563 102.112 78.4345 102.439C78.9174 102.761 79.2939 103.213 79.5637 103.795H79.6774C79.9567 103.232 80.3758 102.785 80.9345 102.453C81.4932 102.117 82.1632 101.949 82.9444 101.949C83.9198 101.949 84.7176 102.254 85.3379 102.865C85.9582 103.471 86.2683 104.416 86.2683 105.699V113H84.5922V105.699C84.5922 104.894 84.372 104.319 83.9316 103.973C83.4913 103.627 82.9728 103.455 82.3762 103.455C81.6092 103.455 81.015 103.687 80.5936 104.151C80.1722 104.61 79.9615 105.192 79.9615 105.898V113H78.2569V105.528C78.2569 104.908 78.0557 104.409 77.6532 104.03C77.2508 103.646 76.7323 103.455 76.0978 103.455C75.6622 103.455 75.255 103.571 74.8762 103.803C74.5022 104.035 74.1992 104.357 73.9672 104.768C73.7399 105.176 73.6262 105.647 73.6262 106.182V113H71.9501ZM93.9068 113.227C92.8556 113.227 91.9489 112.995 91.1866 112.531C90.429 112.062 89.8443 111.409 89.4324 110.571C89.0252 109.728 88.8216 108.748 88.8216 107.631C88.8216 106.513 89.0252 105.528 89.4324 104.676C89.8443 103.819 90.4172 103.152 91.1511 102.673C91.8897 102.19 92.7515 101.949 93.7363 101.949C94.3045 101.949 94.8656 102.044 95.4196 102.233C95.9735 102.422 96.4778 102.73 96.9324 103.156C97.3869 103.578 97.7491 104.136 98.019 104.832C98.2889 105.528 98.4238 106.385 98.4238 107.403V108.114H90.0147V106.665H96.7193C96.7193 106.049 96.5962 105.5 96.35 105.017C96.1085 104.534 95.7628 104.153 95.313 103.874C94.868 103.594 94.3424 103.455 93.7363 103.455C93.0687 103.455 92.4911 103.62 92.0034 103.952C91.5204 104.278 91.1487 104.705 90.8883 105.23C90.6279 105.756 90.4977 106.319 90.4977 106.92V107.886C90.4977 108.71 90.6397 109.409 90.9238 109.982C91.2127 110.55 91.6127 110.983 92.1241 111.281C92.6355 111.575 93.2297 111.722 93.9068 111.722C94.3471 111.722 94.7449 111.66 95.1 111.537C95.4598 111.409 95.7699 111.22 96.0304 110.969C96.2908 110.713 96.492 110.396 96.6341 110.017L98.2534 110.472C98.0829 111.021 97.7965 111.504 97.394 111.92C96.9915 112.332 96.4944 112.654 95.9025 112.886C95.3107 113.114 94.6454 113.227 93.9068 113.227ZM106.599 113V102.091H108.218V103.795H108.36C108.587 103.213 108.954 102.761 109.461 102.439C109.967 102.112 110.576 101.949 111.286 101.949C112.006 101.949 112.605 102.112 113.083 102.439C113.566 102.761 113.942 103.213 114.212 103.795H114.326C114.605 103.232 115.024 102.785 115.583 102.453C116.142 102.117 116.812 101.949 117.593 101.949C118.568 101.949 119.366 102.254 119.986 102.865C120.607 103.471 120.917 104.416 120.917 105.699V113H119.241V105.699C119.241 104.894 119.02 104.319 118.58 103.973C118.14 103.627 117.621 103.455 117.025 103.455C116.258 103.455 115.663 103.687 115.242 104.151C114.821 104.61 114.61 105.192 114.61 105.898V113H112.905V105.528C112.905 104.908 112.704 104.409 112.302 104.03C111.899 103.646 111.381 103.455 110.746 103.455C110.311 103.455 109.903 103.571 109.525 103.803C109.151 104.035 108.848 104.357 108.616 104.768C108.388 105.176 108.275 105.647 108.275 106.182V113H106.599ZM127.192 113.256C126.5 113.256 125.873 113.125 125.309 112.865C124.746 112.6 124.299 112.219 123.967 111.722C123.636 111.22 123.47 110.614 123.47 109.903C123.47 109.278 123.593 108.772 123.839 108.384C124.086 107.991 124.415 107.683 124.827 107.46C125.238 107.238 125.693 107.072 126.19 106.963C126.692 106.849 127.196 106.759 127.703 106.693C128.366 106.608 128.903 106.544 129.315 106.501C129.732 106.454 130.035 106.376 130.224 106.267C130.418 106.158 130.515 105.969 130.515 105.699V105.642C130.515 104.941 130.324 104.397 129.94 104.009C129.561 103.62 128.986 103.426 128.214 103.426C127.414 103.426 126.787 103.601 126.332 103.952C125.878 104.302 125.558 104.676 125.373 105.074L123.782 104.506C124.067 103.843 124.445 103.327 124.919 102.957C125.397 102.583 125.918 102.323 126.481 102.176C127.05 102.025 127.608 101.949 128.157 101.949C128.508 101.949 128.91 101.991 129.365 102.077C129.824 102.157 130.267 102.325 130.693 102.581C131.124 102.837 131.481 103.223 131.765 103.739C132.05 104.255 132.192 104.946 132.192 105.812V113H130.515V111.523H130.43C130.317 111.759 130.127 112.013 129.862 112.283C129.597 112.553 129.244 112.782 128.804 112.972C128.363 113.161 127.826 113.256 127.192 113.256ZM127.447 111.75C128.11 111.75 128.669 111.62 129.123 111.359C129.583 111.099 129.928 110.763 130.16 110.351C130.397 109.939 130.515 109.506 130.515 109.051V107.517C130.444 107.602 130.288 107.68 130.047 107.751C129.81 107.818 129.535 107.877 129.223 107.929C128.915 107.976 128.614 108.019 128.321 108.057C128.032 108.09 127.798 108.118 127.618 108.142C127.182 108.199 126.775 108.291 126.396 108.419C126.022 108.542 125.719 108.729 125.487 108.98C125.26 109.226 125.146 109.562 125.146 109.989C125.146 110.571 125.362 111.011 125.792 111.31C126.228 111.603 126.78 111.75 127.447 111.75ZM135.94 117.091C135.656 117.091 135.402 117.067 135.18 117.02C134.957 116.977 134.803 116.935 134.718 116.892L135.144 115.415C135.552 115.519 135.911 115.557 136.224 115.528C136.536 115.5 136.813 115.36 137.055 115.109C137.301 114.863 137.526 114.463 137.73 113.909L138.042 113.057L134.008 102.091H135.826L138.838 110.784H138.951L141.963 102.091H143.781L139.15 114.591C138.942 115.154 138.684 115.621 138.376 115.99C138.068 116.364 137.711 116.641 137.303 116.821C136.901 117.001 136.446 117.091 135.94 117.091ZM146.22 113V98.4545H147.896V103.824H148.039C148.162 103.634 148.332 103.393 148.55 103.099C148.772 102.801 149.09 102.536 149.502 102.304C149.918 102.067 150.482 101.949 151.192 101.949C152.11 101.949 152.92 102.179 153.621 102.638C154.322 103.097 154.869 103.748 155.262 104.591C155.655 105.434 155.851 106.428 155.851 107.574C155.851 108.729 155.655 109.731 155.262 110.578C154.869 111.421 154.324 112.074 153.628 112.538C152.932 112.998 152.129 113.227 151.22 113.227C150.52 113.227 149.959 113.111 149.537 112.879C149.116 112.643 148.791 112.375 148.564 112.077C148.337 111.774 148.162 111.523 148.039 111.324H147.84V113H146.22ZM147.868 107.545C147.868 108.369 147.989 109.096 148.23 109.726C148.472 110.351 148.825 110.841 149.289 111.196C149.753 111.546 150.321 111.722 150.993 111.722C151.694 111.722 152.279 111.537 152.747 111.168C153.221 110.794 153.576 110.292 153.813 109.662C154.054 109.027 154.175 108.322 154.175 107.545C154.175 106.778 154.057 106.087 153.82 105.472C153.588 104.851 153.235 104.361 152.762 104.001C152.293 103.637 151.703 103.455 150.993 103.455C150.311 103.455 149.738 103.627 149.274 103.973C148.81 104.314 148.46 104.792 148.223 105.408C147.986 106.018 147.868 106.731 147.868 107.545ZM162.989 113.227C161.938 113.227 161.031 112.995 160.269 112.531C159.511 112.062 158.926 111.409 158.514 110.571C158.107 109.728 157.904 108.748 157.904 107.631C157.904 106.513 158.107 105.528 158.514 104.676C158.926 103.819 159.499 103.152 160.233 102.673C160.972 102.19 161.834 101.949 162.818 101.949C163.387 101.949 163.948 102.044 164.502 102.233C165.056 102.422 165.56 102.73 166.014 103.156C166.469 103.578 166.831 104.136 167.101 104.832C167.371 105.528 167.506 106.385 167.506 107.403V108.114H159.097V106.665H165.801C165.801 106.049 165.678 105.5 165.432 105.017C165.191 104.534 164.845 104.153 164.395 103.874C163.95 103.594 163.424 103.455 162.818 103.455C162.151 103.455 161.573 103.62 161.085 103.952C160.602 104.278 160.231 104.705 159.97 105.23C159.71 105.756 159.58 106.319 159.58 106.92V107.886C159.58 108.71 159.722 109.409 160.006 109.982C160.295 110.55 160.695 110.983 161.206 111.281C161.718 111.575 162.312 111.722 162.989 111.722C163.429 111.722 163.827 111.66 164.182 111.537C164.542 111.409 164.852 111.22 165.112 110.969C165.373 110.713 165.574 110.396 165.716 110.017L167.335 110.472C167.165 111.021 166.878 111.504 166.476 111.92C166.074 112.332 165.576 112.654 164.985 112.886C164.393 113.114 163.727 113.227 162.989 113.227Z" fill="white"/>
</svg>
