<svg width="203" height="203" viewBox="0 0 203 203" fill="none" xmlns="http://www.w3.org/2000/svg">
<circle cx="101.5" cy="101.5" r="101.5" fill="#1F3555"/>
<path d="M33.2356 98.4545V113H31.4743V98.4545H33.2356ZM41.2843 102.091V103.511H35.6309V102.091H41.2843ZM37.2786 99.4773H38.9547V109.875C38.9547 110.348 39.0234 110.704 39.1607 110.94C39.3027 111.172 39.4827 111.329 39.7005 111.409C39.923 111.485 40.1574 111.523 40.4036 111.523C40.5882 111.523 40.7398 111.513 40.8581 111.494C40.9765 111.471 41.0712 111.452 41.1422 111.438L41.4831 112.943C41.3695 112.986 41.2109 113.028 41.0073 113.071C40.8037 113.118 40.5456 113.142 40.2331 113.142C39.7596 113.142 39.2956 113.04 38.8411 112.837C38.3913 112.633 38.0172 112.323 37.7189 111.906C37.4254 111.49 37.2786 110.964 37.2786 110.33V99.4773ZM51.3375 104.534L49.8319 104.96C49.7372 104.709 49.5975 104.465 49.4128 104.229C49.2329 103.987 48.9867 103.788 48.6742 103.632C48.3617 103.476 47.9616 103.398 47.4739 103.398C46.8063 103.398 46.2499 103.552 45.8049 103.859C45.3645 104.162 45.1444 104.548 45.1444 105.017C45.1444 105.434 45.2959 105.763 45.5989 106.004C45.9019 106.246 46.3754 106.447 47.0194 106.608L48.6387 107.006C49.6141 107.242 50.3408 107.605 50.8191 108.092C51.2973 108.575 51.5364 109.198 51.5364 109.96C51.5364 110.585 51.3565 111.144 50.9966 111.636C50.6415 112.129 50.1444 112.517 49.5051 112.801C48.8659 113.085 48.1226 113.227 47.275 113.227C46.1623 113.227 45.2414 112.986 44.5123 112.503C43.7831 112.02 43.3214 111.314 43.1273 110.386L44.7182 109.989C44.8697 110.576 45.1562 111.016 45.5776 111.31C46.0037 111.603 46.5601 111.75 47.2466 111.75C48.0279 111.75 48.6481 111.584 49.1074 111.253C49.5714 110.917 49.8034 110.514 49.8034 110.045C49.8034 109.667 49.6709 109.349 49.4057 109.094C49.1406 108.833 48.7334 108.639 48.1841 108.511L46.3659 108.085C45.3669 107.848 44.633 107.482 44.1642 106.984C43.7002 106.482 43.4682 105.855 43.4682 105.102C43.4682 104.487 43.641 103.942 43.9867 103.469C44.3371 102.995 44.8129 102.624 45.4142 102.354C46.0203 102.084 46.7069 101.949 47.4739 101.949C48.5534 101.949 49.401 102.186 50.0165 102.659C50.6368 103.133 51.0771 103.758 51.3375 104.534ZM59.6845 113V102.091H61.3038V103.739H61.4174C61.6163 103.199 61.9761 102.761 62.497 102.425C63.0178 102.089 63.6049 101.92 64.2583 101.92C64.3815 101.92 64.5353 101.923 64.72 101.928C64.9047 101.932 65.0443 101.939 65.139 101.949V103.653C65.0822 103.639 64.952 103.618 64.7484 103.589C64.5495 103.556 64.3388 103.54 64.1163 103.54C63.586 103.54 63.1125 103.651 62.6958 103.874C62.2839 104.091 61.9572 104.394 61.7157 104.783C61.479 105.166 61.3606 105.604 61.3606 106.097V113H59.6845ZM70.3361 113.256C69.6448 113.256 69.0175 113.125 68.454 112.865C67.8906 112.6 67.4431 112.219 67.1117 111.722C66.7802 111.22 66.6145 110.614 66.6145 109.903C66.6145 109.278 66.7376 108.772 66.9838 108.384C67.2301 107.991 67.5591 107.683 67.9711 107.46C68.383 107.238 68.8375 107.072 69.3347 106.963C69.8366 106.849 70.3408 106.759 70.8475 106.693C71.5104 106.608 72.0478 106.544 72.4597 106.501C72.8764 106.454 73.1794 106.376 73.3688 106.267C73.5629 106.158 73.66 105.969 73.66 105.699V105.642C73.66 104.941 73.4682 104.397 73.0847 104.009C72.7059 103.62 72.1306 103.426 71.3588 103.426C70.5587 103.426 69.9313 103.601 69.4767 103.952C69.0222 104.302 68.7026 104.676 68.5179 105.074L66.927 104.506C67.2111 103.843 67.5899 103.327 68.0634 102.957C68.5416 102.583 69.0624 102.323 69.6259 102.176C70.1941 102.025 70.7528 101.949 71.302 101.949C71.6524 101.949 72.0549 101.991 72.5094 102.077C72.9687 102.157 73.4114 102.325 73.8375 102.581C74.2684 102.837 74.6259 103.223 74.91 103.739C75.1941 104.255 75.3361 104.946 75.3361 105.812V113H73.66V111.523H73.5748C73.4611 111.759 73.2717 112.013 73.0066 112.283C72.7414 112.553 72.3887 112.782 71.9483 112.972C71.508 113.161 70.9706 113.256 70.3361 113.256ZM70.5918 111.75C71.2547 111.75 71.8134 111.62 72.2679 111.359C72.7272 111.099 73.0729 110.763 73.3049 110.351C73.5416 109.939 73.66 109.506 73.66 109.051V107.517C73.589 107.602 73.4327 107.68 73.1912 107.751C72.9545 107.818 72.6799 107.877 72.3674 107.929C72.0596 107.976 71.7589 108.019 71.4654 108.057C71.1766 108.09 70.9422 108.118 70.7623 108.142C70.3266 108.199 69.9194 108.291 69.5407 108.419C69.1666 108.542 68.8636 108.729 68.6316 108.98C68.4043 109.226 68.2907 109.562 68.2907 109.989C68.2907 110.571 68.5061 111.011 68.937 111.31C69.3726 111.603 69.9242 111.75 70.5918 111.75ZM78.3954 113V102.091H80.0716V113H78.3954ZM79.2477 100.273C78.921 100.273 78.6393 100.161 78.4025 99.9389C78.1705 99.7164 78.0545 99.4489 78.0545 99.1364C78.0545 98.8239 78.1705 98.5563 78.4025 98.3338C78.6393 98.1113 78.921 98 79.2477 98C79.5744 98 79.8538 98.1113 80.0858 98.3338C80.3225 98.5563 80.4409 98.8239 80.4409 99.1364C80.4409 99.4489 80.3225 99.7164 80.0858 99.9389C79.8538 100.161 79.5744 100.273 79.2477 100.273ZM84.8176 106.438V113H83.1415V102.091H84.7608V103.795H84.9029C85.1586 103.241 85.5468 102.796 86.0676 102.46C86.5885 102.119 87.2608 101.949 88.0847 101.949C88.8233 101.949 89.4696 102.1 90.0236 102.403C90.5776 102.702 91.0085 103.156 91.3162 103.767C91.624 104.373 91.7779 105.14 91.7779 106.068V113H90.1017V106.182C90.1017 105.325 89.8792 104.657 89.4341 104.179C88.9891 103.696 88.3783 103.455 87.6017 103.455C87.0667 103.455 86.5885 103.571 86.1671 103.803C85.7504 104.035 85.4213 104.373 85.1799 104.818C84.9384 105.263 84.8176 105.803 84.8176 106.438ZM94.8407 113V102.091H96.5169V113H94.8407ZM95.693 100.273C95.3663 100.273 95.0846 100.161 94.8478 99.9389C94.6158 99.7164 94.4998 99.4489 94.4998 99.1364C94.4998 98.8239 94.6158 98.5563 94.8478 98.3338C95.0846 98.1113 95.3663 98 95.693 98C96.0197 98 96.2991 98.1113 96.5311 98.3338C96.7678 98.5563 96.8862 98.8239 96.8862 99.1364C96.8862 99.4489 96.7678 99.7164 96.5311 99.9389C96.2991 100.161 96.0197 100.273 95.693 100.273ZM101.263 106.438V113H99.5868V102.091H101.206V103.795H101.348C101.604 103.241 101.992 102.796 102.513 102.46C103.034 102.119 103.706 101.949 104.53 101.949C105.269 101.949 105.915 102.1 106.469 102.403C107.023 102.702 107.454 103.156 107.762 103.767C108.069 104.373 108.223 105.14 108.223 106.068V113H106.547V106.182C106.547 105.325 106.325 104.657 105.879 104.179C105.434 103.696 104.824 103.455 104.047 103.455C103.512 103.455 103.034 103.571 102.612 103.803C102.196 104.035 101.867 104.373 101.625 104.818C101.384 105.263 101.263 105.803 101.263 106.438ZM115.689 117.318C114.88 117.318 114.184 117.214 113.601 117.006C113.019 116.802 112.534 116.532 112.145 116.196C111.762 115.865 111.456 115.509 111.229 115.131L112.564 114.193C112.716 114.392 112.908 114.619 113.14 114.875C113.372 115.135 113.689 115.36 114.091 115.55C114.499 115.744 115.031 115.841 115.689 115.841C116.57 115.841 117.297 115.628 117.87 115.202C118.443 114.776 118.729 114.108 118.729 113.199V110.983H118.587C118.464 111.182 118.289 111.428 118.062 111.722C117.839 112.01 117.517 112.268 117.096 112.496C116.679 112.718 116.116 112.83 115.405 112.83C114.525 112.83 113.734 112.621 113.033 112.205C112.337 111.788 111.786 111.182 111.378 110.386C110.976 109.591 110.775 108.625 110.775 107.489C110.775 106.371 110.971 105.398 111.364 104.57C111.757 103.736 112.304 103.092 113.005 102.638C113.706 102.179 114.515 101.949 115.434 101.949C116.144 101.949 116.707 102.067 117.124 102.304C117.546 102.536 117.867 102.801 118.09 103.099C118.317 103.393 118.492 103.634 118.616 103.824H118.786V102.091H120.405V113.312C120.405 114.25 120.192 115.012 119.766 115.599C119.345 116.191 118.777 116.625 118.062 116.899C117.351 117.179 116.561 117.318 115.689 117.318ZM115.633 111.324C116.305 111.324 116.873 111.17 117.337 110.862C117.801 110.554 118.154 110.112 118.395 109.534C118.637 108.956 118.758 108.265 118.758 107.46C118.758 106.674 118.639 105.981 118.403 105.379C118.166 104.778 117.815 104.307 117.351 103.966C116.887 103.625 116.314 103.455 115.633 103.455C114.922 103.455 114.331 103.634 113.857 103.994C113.388 104.354 113.036 104.837 112.799 105.443C112.567 106.049 112.451 106.722 112.451 107.46C112.451 108.218 112.569 108.888 112.806 109.47C113.047 110.048 113.403 110.502 113.871 110.834C114.345 111.161 114.932 111.324 115.633 111.324ZM129.099 113V102.091H130.718V103.795H130.86C131.087 103.213 131.454 102.761 131.961 102.439C132.467 102.112 133.076 101.949 133.786 101.949C134.506 101.949 135.105 102.112 135.583 102.439C136.066 102.761 136.442 103.213 136.712 103.795H136.826C137.105 103.232 137.524 102.785 138.083 102.453C138.642 102.117 139.312 101.949 140.093 101.949C141.068 101.949 141.866 102.254 142.486 102.865C143.107 103.471 143.417 104.416 143.417 105.699V113H141.741V105.699C141.741 104.894 141.52 104.319 141.08 103.973C140.64 103.627 140.121 103.455 139.525 103.455C138.758 103.455 138.163 103.687 137.742 104.151C137.321 104.61 137.11 105.192 137.11 105.898V113H135.405V105.528C135.405 104.908 135.204 104.409 134.802 104.03C134.399 103.646 133.881 103.455 133.246 103.455C132.811 103.455 132.403 103.571 132.025 103.803C131.651 104.035 131.348 104.357 131.116 104.768C130.888 105.176 130.775 105.647 130.775 106.182V113H129.099ZM151.055 113.227C150.004 113.227 149.097 112.995 148.335 112.531C147.577 112.062 146.993 111.409 146.581 110.571C146.174 109.728 145.97 108.748 145.97 107.631C145.97 106.513 146.174 105.528 146.581 104.676C146.993 103.819 147.566 103.152 148.3 102.673C149.038 102.19 149.9 101.949 150.885 101.949C151.453 101.949 152.014 102.044 152.568 102.233C153.122 102.422 153.626 102.73 154.081 103.156C154.535 103.578 154.898 104.136 155.167 104.832C155.437 105.528 155.572 106.385 155.572 107.403V108.114H147.163V106.665H153.868C153.868 106.049 153.745 105.5 153.498 105.017C153.257 104.534 152.911 104.153 152.461 103.874C152.016 103.594 151.491 103.455 150.885 103.455C150.217 103.455 149.64 103.62 149.152 103.952C148.669 104.278 148.297 104.705 148.037 105.23C147.776 105.756 147.646 106.319 147.646 106.92V107.886C147.646 108.71 147.788 109.409 148.072 109.982C148.361 110.55 148.761 110.983 149.273 111.281C149.784 111.575 150.378 111.722 151.055 111.722C151.496 111.722 151.893 111.66 152.248 111.537C152.608 111.409 152.918 111.22 153.179 110.969C153.439 110.713 153.64 110.396 153.782 110.017L155.402 110.472C155.231 111.021 154.945 111.504 154.542 111.92C154.14 112.332 153.643 112.654 153.051 112.886C152.459 113.114 151.794 113.227 151.055 113.227ZM159.798 106.438V113H158.122V102.091H159.741V103.795H159.883C160.139 103.241 160.527 102.796 161.048 102.46C161.569 102.119 162.241 101.949 163.065 101.949C163.804 101.949 164.45 102.1 165.004 102.403C165.558 102.702 165.989 103.156 166.297 103.767C166.604 104.373 166.758 105.14 166.758 106.068V113H165.082V106.182C165.082 105.325 164.86 104.657 164.415 104.179C163.97 103.696 163.359 103.455 162.582 103.455C162.047 103.455 161.569 103.571 161.148 103.803C160.731 104.035 160.402 104.373 160.16 104.818C159.919 105.263 159.798 105.803 159.798 106.438Z" fill="white"/>
</svg>
