<svg width="203" height="203" viewBox="0 0 203 203" fill="none" xmlns="http://www.w3.org/2000/svg">
<circle cx="101.5" cy="101.5" r="101.5" fill="#1F3555"/>
<path d="M61.9918 113V98.4545H63.7532V111.438H70.5146V113H61.9918ZM77.5884 113.227C76.5373 113.227 75.6306 112.995 74.8683 112.531C74.1107 112.062 73.5259 111.409 73.114 110.571C72.7068 109.728 72.5032 108.748 72.5032 107.631C72.5032 106.513 72.7068 105.528 73.114 104.676C73.5259 103.819 74.0988 103.152 74.8327 102.673C75.5714 102.19 76.4331 101.949 77.418 101.949C77.9862 101.949 78.5472 102.044 79.1012 102.233C79.6552 102.422 80.1594 102.73 80.614 103.156C81.0685 103.578 81.4308 104.136 81.7006 104.832C81.9705 105.528 82.1055 106.385 82.1055 107.403V108.114H73.6964V106.665H80.4009C80.4009 106.049 80.2778 105.5 80.0316 105.017C79.7901 104.534 79.4445 104.153 78.9947 103.874C78.5496 103.594 78.024 103.455 77.418 103.455C76.7504 103.455 76.1727 103.62 75.685 103.952C75.2021 104.278 74.8304 104.705 74.57 105.23C74.3095 105.756 74.1793 106.319 74.1793 106.92V107.886C74.1793 108.71 74.3214 109.409 74.6055 109.982C74.8943 110.55 75.2944 110.983 75.8058 111.281C76.3171 111.575 76.9113 111.722 77.5884 111.722C78.0288 111.722 78.4265 111.66 78.7816 111.537C79.1415 111.409 79.4516 111.22 79.712 110.969C79.9724 110.713 80.1737 110.396 80.3157 110.017L81.935 110.472C81.7646 111.021 81.4781 111.504 81.0756 111.92C80.6732 112.332 80.176 112.654 79.5842 112.886C78.9923 113.114 78.3271 113.227 77.5884 113.227ZM89.3995 102.091V103.511H83.7461V102.091H89.3995ZM85.3938 99.4773H87.07V109.875C87.07 110.348 87.1386 110.704 87.2759 110.94C87.418 111.172 87.5979 111.329 87.8157 111.409C88.0382 111.485 88.2726 111.523 88.5188 111.523C88.7035 111.523 88.855 111.513 88.9734 111.494C89.0917 111.471 89.1864 111.452 89.2575 111.438L89.5984 112.943C89.4847 112.986 89.3261 113.028 89.1225 113.071C88.9189 113.118 88.6609 113.142 88.3484 113.142C87.8749 113.142 87.4109 113.04 86.9563 112.837C86.5065 112.633 86.1325 112.323 85.8342 111.906C85.5406 111.49 85.3938 110.964 85.3938 110.33V99.4773ZM97.5458 113V102.091H99.2219V113H97.5458ZM98.3981 100.273C98.0714 100.273 97.7897 100.161 97.5529 99.9389C97.3209 99.7164 97.2049 99.4489 97.2049 99.1364C97.2049 98.8239 97.3209 98.5563 97.5529 98.3338C97.7897 98.1113 98.0714 98 98.3981 98C98.7248 98 99.0041 98.1113 99.2362 98.3338C99.4729 98.5563 99.5913 98.8239 99.5913 99.1364C99.5913 99.4489 99.4729 99.7164 99.2362 99.9389C99.0041 100.161 98.7248 100.273 98.3981 100.273ZM107.036 102.091V103.511H101.383V102.091H107.036ZM103.031 99.4773H104.707V109.875C104.707 110.348 104.775 110.704 104.913 110.94C105.055 111.172 105.235 111.329 105.452 111.409C105.675 111.485 105.909 111.523 106.156 111.523C106.34 111.523 106.492 111.513 106.61 111.494C106.728 111.471 106.823 111.452 106.894 111.438L107.235 112.943C107.121 112.986 106.963 113.028 106.759 113.071C106.556 113.118 106.298 113.142 105.985 113.142C105.512 113.142 105.048 113.04 104.593 112.837C104.143 112.633 103.769 112.323 103.471 111.906C103.177 111.49 103.031 110.964 103.031 110.33V99.4773ZM119.586 117.318C118.776 117.318 118.08 117.214 117.498 117.006C116.915 116.802 116.43 116.532 116.042 116.196C115.658 115.865 115.353 115.509 115.126 115.131L116.461 114.193C116.612 114.392 116.804 114.619 117.036 114.875C117.268 115.135 117.585 115.36 117.988 115.55C118.395 115.744 118.928 115.841 119.586 115.841C120.467 115.841 121.193 115.628 121.766 115.202C122.339 114.776 122.626 114.108 122.626 113.199V110.983H122.484C122.361 111.182 122.185 111.428 121.958 111.722C121.736 112.01 121.414 112.268 120.992 112.496C120.576 112.718 120.012 112.83 119.302 112.83C118.421 112.83 117.63 112.621 116.93 112.205C116.234 111.788 115.682 111.182 115.275 110.386C114.872 109.591 114.671 108.625 114.671 107.489C114.671 106.371 114.868 105.398 115.261 104.57C115.654 103.736 116.201 103.092 116.901 102.638C117.602 102.179 118.412 101.949 119.33 101.949C120.04 101.949 120.604 102.067 121.021 102.304C121.442 102.536 121.764 102.801 121.987 103.099C122.214 103.393 122.389 103.634 122.512 103.824H122.683V102.091H124.302V113.312C124.302 114.25 124.089 115.012 123.663 115.599C123.241 116.191 122.673 116.625 121.958 116.899C121.248 117.179 120.457 117.318 119.586 117.318ZM119.529 111.324C120.201 111.324 120.77 111.17 121.234 110.862C121.698 110.554 122.05 110.112 122.292 109.534C122.533 108.956 122.654 108.265 122.654 107.46C122.654 106.674 122.536 105.981 122.299 105.379C122.062 104.778 121.712 104.307 121.248 103.966C120.784 103.625 120.211 103.455 119.529 103.455C118.819 103.455 118.227 103.634 117.754 103.994C117.285 104.354 116.932 104.837 116.695 105.443C116.463 106.049 116.347 106.722 116.347 107.46C116.347 108.218 116.466 108.888 116.702 109.47C116.944 110.048 117.299 110.502 117.768 110.834C118.241 111.161 118.828 111.324 119.529 111.324ZM131.802 113.227C130.817 113.227 129.953 112.993 129.21 112.524C128.471 112.055 127.893 111.4 127.477 110.557C127.065 109.714 126.859 108.729 126.859 107.602C126.859 106.466 127.065 105.474 127.477 104.626C127.893 103.779 128.471 103.121 129.21 102.652C129.953 102.183 130.817 101.949 131.802 101.949C132.787 101.949 133.648 102.183 134.387 102.652C135.13 103.121 135.708 103.779 136.12 104.626C136.537 105.474 136.745 106.466 136.745 107.602C136.745 108.729 136.537 109.714 136.12 110.557C135.708 111.4 135.13 112.055 134.387 112.524C133.648 112.993 132.787 113.227 131.802 113.227ZM131.802 111.722C132.55 111.722 133.165 111.53 133.648 111.146C134.131 110.763 134.489 110.259 134.721 109.634C134.953 109.009 135.069 108.331 135.069 107.602C135.069 106.873 134.953 106.194 134.721 105.564C134.489 104.934 134.131 104.425 133.648 104.037C133.165 103.649 132.55 103.455 131.802 103.455C131.054 103.455 130.438 103.649 129.955 104.037C129.472 104.425 129.115 104.934 128.883 105.564C128.651 106.194 128.535 106.873 128.535 107.602C128.535 108.331 128.651 109.009 128.883 109.634C129.115 110.259 129.472 110.763 129.955 111.146C130.438 111.53 131.054 111.722 131.802 111.722Z" fill="white"/>
</svg>
